<svg xmlns="http://www.w3.org/2000/svg" xmlns:svg="http://www.w3.org/2000/svg" xmlns:xlink="http://www.w3.org/1999/xlink" id="svg2" width="744.094" height="1052.362"><defs id="defs4"><marker id="DiamondLend" orient="auto" overflow="visible" refX="0" refY="0"><path id="path3864" fill-rule="evenodd" stroke="#000" stroke-width="1pt" marker-start="none" d="M 0,-7.0710768 L -7.0710894,0 L 0,7.0710589 L 7.0710462,0 L 0,-7.0710768 z" transform="scale(0.8) translate(-7,0)"/></marker><marker id="Arrow1Lend" orient="auto" overflow="visible" refX="0" refY="0"><path id="path3769" fill-rule="evenodd" stroke="#000" stroke-width="1pt" marker-start="none" d="M 0.0,0.0 L 5.0,-5.0 L -12.5,0.0 L 5.0,5.0 L 0.0,0.0 z" transform="scale(0.8) rotate(180) translate(12.5,0)"/></marker></defs><metadata id="metadata7"/><g id="layer1"><image id="image2466" width="617.976" height="354.286" x="64.667" y="56.648" xlink:href="ipython_2.png"/><text id="text5058" x="50.82" y="274.349" fill="red" fill-opacity="1" stroke="none" stroke-linecap="butt" stroke-linejoin="miter" stroke-opacity="1" stroke-width="1" font-family="Bitstream Vera Sans Mono" font-size="12" font-stretch="normal" font-style="normal" font-variant="normal" font-weight="normal" text-anchor="start" transform="matrix(0.9670185,-0.2547063,0.2547063,0.9670185,0,0)" writing-mode="lr-tb" xml:space="preserve" style="text-align:start;line-height:125%;-inkscape-font-specification:Bitstream Vera Sans Mono"><tspan id="tspan5060" x="50.82" y="274.349" fill="red" fill-opacity="1" stroke="none" stroke-width="1">Start interactive visualization</tspan></text><g id="g6122"><path id="path4541" fill="red" fill-opacity="1" fill-rule="evenodd" stroke="red" stroke-dasharray="none" stroke-linecap="butt" stroke-linejoin="miter" stroke-miterlimit="4" stroke-opacity="1" stroke-width="1.535" marker-end="none" d="M 125.32653,258.31467 L 358.53654,197.97887" opacity="1"/><path id="path6120" fill="red" fill-opacity="1" fill-rule="evenodd" stroke="none" stroke-linecap="butt" stroke-linejoin="miter" stroke-opacity="1" stroke-width="1" d="M 348.75515,192.28043 C 352.49614,193.74843 353.5259,196.1778 360.6876,196.51044 C 364.29401,196.67943 353.37585,204.48111 352.16443,208.19033"/></g><g id="g6126" transform="matrix(-0.9610504,-5.0471128e-2,4.3171158e-2,-1.123558,458.97733,517.25441)"><path id="path6128" fill="red" fill-opacity="1" fill-rule="evenodd" stroke="red" stroke-dasharray="none" stroke-linecap="butt" stroke-linejoin="miter" stroke-miterlimit="4" stroke-opacity="1" stroke-width="1.535" marker-end="none" d="M 125.32653,258.31467 L 358.53654,197.97887" opacity="1"/><path id="path6130" fill="red" fill-opacity="1" fill-rule="evenodd" stroke="none" stroke-linecap="butt" stroke-linejoin="miter" stroke-opacity="1" stroke-width="1" d="M 348.75515,192.28043 C 352.49614,193.74843 353.5259,196.1778 360.6876,196.51044 C 364.29401,196.67943 353.37585,204.48111 352.16443,208.19033"/></g><text id="text6132" x="64.235" y="312.148" fill="red" fill-opacity="1" stroke="none" stroke-linecap="butt" stroke-linejoin="miter" stroke-opacity="1" stroke-width="1" font-family="Bitstream Vera Sans Mono" font-size="12" font-stretch="normal" font-style="normal" font-variant="normal" font-weight="normal" text-anchor="start" transform="matrix(0.9705296,-0.2409821,0.2409821,0.9705296,0,0)" writing-mode="lr-tb" xml:space="preserve" style="text-align:start;line-height:125%;-inkscape-font-specification:Bitstream Vera Sans Mono"><tspan id="tspan6134" x="64.235" y="312.148" fill="red" fill-opacity="1" stroke="none" stroke-width="1">Return to session after manipulation</tspan></text></g></svg>